<svg width="32" height="32" viewBox="0 0 32 32" fill="none" xmlns="http://www.w3.org/2000/svg">
<circle cx="16" cy="16" r="16" fill="#101010"/>
<path d="M19.6855 4.86572C18.6319 4.93859 17.4006 5.61294 16.683 6.49107C16.0284 7.28768 15.4899 8.47087 15.6999 9.62072C16.851 9.65653 18.0404 8.96613 18.7295 8.07318C19.3742 7.24198 19.8621 6.0662 19.6855 4.86572Z" fill="white"/>
<path d="M23.8493 11.4957C22.8378 10.2273 21.4162 9.49121 20.0737 9.49121C18.3014 9.49121 17.5517 10.3397 16.3204 10.3397C15.0507 10.3397 14.0861 9.49368 12.5534 9.49368C11.0479 9.49368 9.44476 10.4138 8.4283 11.9873C6.99934 14.203 7.24388 18.3688 9.55962 21.9172C10.3884 23.1868 11.495 24.6146 12.9425 24.6269C14.2306 24.6393 14.5937 23.8007 16.3389 23.792C18.084 23.7821 18.415 24.638 19.7007 24.6244C21.1495 24.6133 22.3166 23.0312 23.1453 21.7616C23.7394 20.8513 23.9605 20.3931 24.4211 19.3655C21.0704 18.0897 20.5332 13.3248 23.8493 11.4957Z" fill="white"/>
</svg>
