<svg width="320" height="60" viewBox="0 0 320 60" fill="none" xmlns="http://www.w3.org/2000/svg">
<path fill-rule="evenodd" clip-rule="evenodd" d="M0 0V59.1336H23.2727C41.5957 59.1336 50.0624 47.7401 50.0624 29.3285C50.0624 11.0903 41.8128 0 23.2727 0H0ZM83.1913 53.5885H83.7992V59.1336H96.8684V28.2888C96.8684 16.852 88.1845 12.1733 77.0692 12.1733C62.3501 12.1733 57.7042 20.0578 57.4437 27.5957H70.4261C70.5997 24.4332 72.9444 22.2671 76.8955 22.2671C80.8033 22.2671 83.1479 24.3466 83.1479 28.1155V31.9711H72.4233C61.6119 31.9711 55.7503 37.343 55.7503 45.7906C55.7503 54.5848 62.0027 59.8267 71.0773 59.8267C77.8942 59.8267 81.6282 56.7942 83.1913 53.5885ZM75.8535 50.1661C72.597 50.1661 69.4708 48.3466 69.4708 44.7076C69.4708 41.5884 71.8155 39.509 76.114 39.509H83.1479V44.0578C83.1479 47.7401 79.8046 50.1661 75.8535 50.1661ZM103.164 12.8664H110.285V2.12274H123.701V12.8664H132.559V23.3935H123.701V43.4946C123.701 47.5668 125.742 48.9531 129.954 48.9531C131.039 48.9531 132.212 48.9097 132.689 48.8664V58.8736C131.647 59.0469 129.389 59.2635 126.611 59.2635C114.714 59.2635 109.938 55.6245 109.938 45.9639V23.3935H103.164V12.8664ZM160.912 60C174.676 60 180.668 51.5957 181.362 44.3177H168.727C168.163 47.7401 165.08 49.7762 160.955 49.7762C156.179 49.7762 152.532 46.2672 152.532 40.3755V38.8159H181.666V34.1805C181.666 20.5343 173.33 12 160.391 12C148.19 12 138.942 19.5812 138.942 33.9639V37.6462C138.942 52.3755 147.886 60 160.912 60ZM152.532 30.8448V30.8014C152.532 25.6895 155.745 21.9206 160.521 21.9206C165.254 21.9206 168.337 25.6895 168.337 30.8014V30.8448H152.532ZM220.613 22.5271V59.1336H207.848V0H222.697L237.894 33.4007H238.328L253.569 0H268.244V59.1336H255.349V22.5271H254.741L242.236 50.2094H233.813L221.265 22.5271H220.613ZM299.246 60C313.01 60 319.001 51.5957 319.696 44.3177H307.061C306.497 47.7401 303.414 49.7762 299.289 49.7762C294.513 49.7762 290.866 46.2672 290.866 40.3755V38.8159H320V34.1805C320 20.5343 311.664 12 298.725 12C286.524 12 277.275 19.5812 277.275 33.9639V37.6462C277.275 52.3755 286.22 60 299.246 60ZM32.8223 26.8748C32.8223 29.531 31.2804 32.2567 28.2404 34.9824C26.8599 36.2191 25.3568 37.3127 23.7543 38.2463C23.6502 38.3033 23.5334 38.3332 23.4146 38.3332C23.2958 38.3332 23.179 38.3033 23.0749 38.2463C22.7003 38.038 14.0069 33.1161 14.0069 26.8748C14.0069 25.7816 14.3521 24.7162 14.9935 23.8294C15.6349 22.9426 16.54 22.2794 17.5806 21.9337C18.6213 21.588 19.7447 21.5774 20.7918 21.9034C21.8388 22.2293 22.7564 22.8753 23.4146 23.7498C24.0728 22.8753 24.9903 22.2293 26.0374 21.9034C27.0844 21.5774 28.2079 21.588 29.2485 21.9337C30.2892 22.2794 31.1943 22.9426 31.8357 23.8294C32.4771 24.7162 32.8223 25.7816 32.8223 26.8748ZM302.193 29.0435C304.321 27.1355 305.401 25.2275 305.401 23.3681C305.401 22.6029 305.159 21.8571 304.71 21.2364C304.261 20.6156 303.628 20.1513 302.899 19.9094C302.171 19.6674 301.384 19.66 300.651 19.8881C299.918 20.1163 299.276 20.5685 298.815 21.1806C298.355 20.5685 297.712 20.1163 296.979 19.8881C296.246 19.66 295.46 19.6674 294.732 19.9094C294.003 20.1513 293.37 20.6156 292.921 21.2364C292.472 21.8571 292.23 22.6029 292.23 23.3681C292.23 27.737 298.315 31.1823 298.578 31.3282C298.65 31.3681 298.732 31.389 298.815 31.389C298.899 31.389 298.98 31.3681 299.053 31.3282C300.175 30.6747 301.227 29.9091 302.193 29.0435Z" fill="#920F1D"/>
</svg>
