<svg width="22" height="22" viewBox="0 0 22 22" fill="none" xmlns="http://www.w3.org/2000/svg">
<path d="M5.37459 13.1081L4.67109 15.7343L2.09981 15.7887C1.33138 14.3634 0.895508 12.7327 0.895508 10.9999C0.895508 9.32416 1.30303 7.74395 2.0254 6.35254H2.02596L4.31511 6.77222L5.3179 9.04764C5.10802 9.65953 4.99363 10.3164 4.99363 10.9999C4.9937 11.7416 5.12807 12.4524 5.37459 13.1081Z" fill="#FBBB00"/>
<path d="M20.9297 9.11182C21.0457 9.72311 21.1062 10.3544 21.1062 10.9996C21.1062 11.7231 21.0302 12.4288 20.8853 13.1095C20.3934 15.4259 19.108 17.4487 17.3274 18.88L17.3268 18.8795L14.4435 18.7324L14.0354 16.1849C15.2169 15.492 16.1403 14.4076 16.6267 13.1095H11.2231V9.11182H16.7055H20.9297Z" fill="#518EF8"/>
<path d="M17.3268 18.8796L17.3274 18.8801C15.5956 20.2721 13.3958 21.1049 11.0011 21.1049C7.15273 21.1049 3.8069 18.954 2.1001 15.7886L5.37487 13.1079C6.22825 15.3855 8.42532 17.0068 11.0011 17.0068C12.1082 17.0068 13.1454 16.7075 14.0354 16.185L17.3268 18.8796Z" fill="#28B446"/>
<path d="M17.4504 3.22095L14.1768 5.90106C13.2556 5.32529 12.1668 4.99269 11.0003 4.99269C8.36623 4.99269 6.12807 6.68836 5.31744 9.04759L2.02545 6.35248H2.0249C3.70672 3.10991 7.09474 0.894531 11.0003 0.894531C13.4522 0.894531 15.7003 1.76793 17.4504 3.22095Z" fill="#F14336"/>
</svg>
